<?xml version="1.0" encoding="iso-8859-1"?>
<!-- Generator: Adobe Illustrator 19.0.0, SVG Export Plug-In . SVG Version: 6.00 Build 0)  -->
<svg version="1.1" id="Layer_1" xmlns="http://www.w3.org/2000/svg" xmlns:xlink="http://www.w3.org/1999/xlink" x="0px" y="0px"
	 viewBox="0 0 512 512" style="enable-background:new 0 0 512 512;" xml:space="preserve">
<circle style="fill:#31BAFD;" cx="256" cy="256" r="256"/>
<path style="fill:#2B9ED8;" d="M502.651,324.742L303.8,125.892l-65.47,186.566l-113.516,86.911l111.913,111.913
	C243.09,511.755,249.516,512,256,512C373.57,512,472.616,432.74,502.651,324.742z"/>
<path style="fill:#E9EFF4;" d="M387.188,399.369H124.814V354.9c0-31.608,20.227-59.67,50.212-69.665l48.178-16.06h65.593
	l48.178,16.06c29.986,9.995,50.212,38.057,50.212,69.665V399.369z"/>
<path style="fill:#D0D1D3;" d="M387.188,354.9c0-31.608-20.225-59.67-50.212-69.665l-48.178-16.06h-32.796v130.193h131.186V354.9z"
	/>
<polygon style="fill:#FED8B2;" points="288.797,269.176 256,301.971 223.204,269.176 223.204,236.378 288.797,236.378 "/>
<polygon style="fill:#EFC095;" points="288.797,236.378 256.002,236.378 256.002,301.971 288.797,269.176 "/>
<path style="fill:#F4E3C3;" d="M190.407,170.786c0-36.226,29.367-65.593,65.593-65.593s65.593,29.367,65.593,65.593
	s-29.367,98.39-65.593,98.39S190.407,207.012,190.407,170.786z"/>
<path style="fill:#FED8B2;" d="M321.595,170.786c0-36.226-29.367-65.593-65.593-65.593v163.983
	C292.228,269.174,321.595,207.012,321.595,170.786z"/>
<path style="fill:#3F3B3B;" d="M321.595,170.786c0-36.226-29.367-65.593-65.593-65.593s-65.593,29.367-65.593,65.593
	c0,14.457,4.687,33.037,12.61,50.155c-1.857-9.854-1.36-19.928-0.386-27.529c41.634-3.267,81.811-22.745,81.811-22.745
	s5.086,9.347,24.159,17.661c1.352,7.759,2.686,20.377,0.365,32.647C316.9,203.848,321.595,185.251,321.595,170.786z"/>
<path style="fill:#272525;" d="M321.595,170.786c0-36.226-29.367-65.593-65.593-65.593v76.691
	c16.998-5.67,28.443-11.217,28.443-11.217s5.086,9.347,24.159,17.661c1.352,7.759,2.686,20.377,0.367,32.647
	C316.9,203.848,321.595,185.251,321.595,170.786z"/>
<polygon style="fill:#FC9483;" points="242.209,398.222 251.402,312.889 260.598,312.889 269.791,398.222 "/>
<polygon style="fill:#FD8469;" points="260.598,312.889 256.002,312.889 256.002,398.222 269.791,398.222 "/>
<path style="fill:#324A5E;" d="M256,398.222l-47.8-124.045l-33.173,11.059c-29.986,9.995-50.212,38.057-50.212,69.665v44.468
	h131.188v-1.15L256,398.222z"/>
<path style="fill:#2B3B4E;" d="M387.188,354.9c0-31.608-20.225-59.67-50.212-69.665L303.8,274.177L256,398.219v1.15h131.186V354.9
	H387.188z"/>
<polygon style="fill:#1B2B3A;" points="303.8,274.177 312.889,312.889 295.65,321.508 312.889,341.333 256,398.222 "/>
<polygon style="fill:#2B3B4E;" points="208.2,274.177 199.111,312.889 216.35,321.508 199.111,341.333 256,398.222 "/>
<polygon style="fill:#FD8469;" points="274.101,302.114 262.034,330.559 249.966,330.559 237.899,302.114 "/>
<polygon style="fill:#FC6F58;" points="274.101,302.114 256.002,302.114 256.002,330.559 262.034,330.559 "/>
<polygon style="fill:#E9EFF4;" points="284.444,312.889 303.8,274.177 288.797,269.176 256,301.971 "/>
<polygon style="fill:#FFFFFF;" points="227.556,312.889 208.2,274.177 223.203,269.176 256,301.971 "/>
<g>
</g>
<g>
</g>
<g>
</g>
<g>
</g>
<g>
</g>
<g>
</g>
<g>
</g>
<g>
</g>
<g>
</g>
<g>
</g>
<g>
</g>
<g>
</g>
<g>
</g>
<g>
</g>
<g>
</g>
</svg>
